<svg width="1147" height="59" viewBox="0 0 1147 59" fill="none" xmlns="http://www.w3.org/2000/svg">
<path d="M17.9567 56.3024L11.9975 45.9807L20.743 30.8745L26.3004 40.501L59.1069 40.4833L49.7979 56.4449L17.9567 56.3024Z" fill="#FFAD64"/>
<path d="M64.9648 30.2346L59.0056 40.5562L41.5506 40.5356L47.1086 30.9094L30.6901 2.50696L49.1677 2.58803L64.9648 30.2346Z" fill="#ADD4D3"/>
<path d="M18.8748 2.45129H30.7932L39.5028 17.5783L28.3871 17.5779L11.9993 45.998L2.83063 29.9554L18.8748 2.45129Z" fill="#FB8351"/>
<path fill-rule="evenodd" clip-rule="evenodd" d="M32.2463 0.0616566L32.2108 0H17.4668L0 29.9431L11.99 50.9223L12.0047 50.8969L16.5374 58.7478L51.2023 58.9029L63.3759 38.0295H63.2949L67.792 30.2404L50.5939 0.142154L32.2463 0.0616566ZM43.6518 20.0302H43.7437L35.0767 4.97739L47.7413 5.03291L62.1375 30.2277L57.6314 38.0327L45.8226 38.0389L49.9399 30.9081L43.6518 20.0302ZM29.2438 4.90318L35.1536 15.1267L26.9712 15.1264L12.9627 39.4199L12.0072 41.0706L5.6619 29.9681L20.2831 4.90318H29.2438ZM23.5619 30.8543L29.8037 20.0297L37.9881 20.03L44.2772 30.9095L40.159 38.0421L27.7154 38.0488L23.5619 30.8543ZM14.8338 45.9906L17.2085 41.8725L20.7398 35.7729L24.8853 42.9535L37.327 42.9468L37.3069 42.9816L54.7996 43.0023L48.3932 53.987L19.3756 53.8572L14.8338 45.9906Z" fill="#333237"/>
<path d="M82.0711 50.3734V38.8959H77.829V37.6074H87.9388V38.8959H83.6965V50.3734H82.0711Z" fill="white"/>
<path d="M92.4557 50.5722C90.7773 50.5722 89.5219 50.1691 88.6893 49.363C87.8567 48.5569 87.4405 47.3146 87.4405 45.6362C87.4405 44.1297 87.7973 42.947 88.5109 42.0879C89.2377 41.2157 90.3809 40.7795 91.9403 40.7795C92.8653 40.7795 93.6252 40.9514 94.2199 41.2951C94.8278 41.6253 95.2772 42.0879 95.568 42.6826C95.8718 43.2641 96.0238 43.9249 96.0238 44.6649V46.4292H89.066C89.1188 47.1428 89.2708 47.7044 89.5218 48.1142C89.7862 48.5238 90.176 48.8211 90.6915 49.0062C91.22 49.1779 91.9139 49.2638 92.7728 49.2638C93.7375 49.2638 94.623 49.0987 95.4291 48.7683V50.037C95.0195 50.2088 94.5569 50.341 94.0415 50.4335C93.5393 50.526 93.0108 50.5722 92.4557 50.5722ZM89.066 45.2597H94.5767V44.4865C94.5767 43.72 94.3719 43.1319 93.9622 42.7223C93.5658 42.2994 92.905 42.0879 91.9799 42.0879C90.8566 42.0879 90.0902 42.3522 89.6804 42.8809C89.2708 43.4094 89.066 44.2024 89.066 45.2597Z" fill="white"/>
<path d="M102.847 50.5722C101.208 50.5722 99.992 50.1493 99.1992 49.3035C98.4062 48.4446 98.0097 47.2353 98.0097 45.6759C98.0097 44.024 98.459 42.795 99.3577 41.9889C100.256 41.1827 101.466 40.7795 102.985 40.7795C103.607 40.7795 104.122 40.8258 104.532 40.9184C104.941 40.9976 105.338 41.1298 105.721 41.3148V42.6033C105.007 42.2597 104.195 42.0879 103.283 42.0879C102.12 42.0879 101.221 42.3655 100.587 42.9206C99.9523 43.4623 99.6352 44.3808 99.6352 45.6759C99.6352 46.9181 99.9128 47.83 100.468 48.4115C101.023 48.9798 101.941 49.2638 103.223 49.2638C104.135 49.2638 104.974 49.0921 105.741 48.7485V50.0568C105.331 50.2287 104.888 50.3541 104.413 50.4335C103.95 50.526 103.428 50.5722 102.847 50.5722Z" fill="white"/>
<path d="M107.563 50.3734V37.0126H109.188V41.9883C109.625 41.6315 110.133 41.3408 110.715 41.1161C111.31 40.8913 111.997 40.779 112.776 40.779C113.913 40.779 114.765 41.0566 115.334 41.6117C115.902 42.1667 116.186 43.0389 116.186 44.2282V50.3734H114.561V44.2878C114.561 43.4684 114.376 42.9002 114.006 42.5829C113.649 42.2526 113.054 42.0874 112.221 42.0874C111.693 42.0874 111.144 42.2063 110.576 42.4442C110.021 42.6688 109.559 42.9663 109.188 43.3362V50.3734H107.563Z" fill="white"/>
<path d="M122.669 50.5721C121.347 50.5721 120.29 50.2813 119.497 49.6997C118.704 49.1183 118.308 48.3386 118.308 47.3606C118.308 46.462 118.585 45.6889 119.14 45.0413C119.695 44.3938 120.455 43.8189 121.42 43.3168C120.904 42.8014 120.468 42.319 120.112 41.8697C119.755 41.4204 119.576 40.8785 119.576 40.2442C119.576 39.4512 119.847 38.7838 120.389 38.2421C120.944 37.687 121.724 37.4095 122.728 37.4095C123.706 37.4095 124.466 37.6672 125.008 38.1825C125.549 38.6979 125.821 39.3851 125.821 40.2442C125.821 40.9578 125.629 41.5591 125.245 42.0481C124.862 42.5371 124.314 43.0326 123.6 43.5349L126.891 46.8849C127.115 46.3959 127.228 45.7748 127.228 45.0215V44.744H128.517V45.0215C128.517 45.537 128.457 46.0391 128.338 46.5281C128.22 47.0171 128.047 47.44 127.823 47.7968L129.607 49.6007L128.615 50.4927L127.029 48.9267C126.567 49.4949 125.966 49.9113 125.226 50.1756C124.486 50.4399 123.633 50.5721 122.669 50.5721ZM122.589 42.7419C123.211 42.3587 123.68 41.9953 123.997 41.6516C124.314 41.2948 124.473 40.8455 124.473 40.3037C124.473 39.8015 124.334 39.405 124.056 39.1143C123.792 38.8104 123.349 38.6584 122.728 38.6584C122.094 38.6584 121.631 38.817 121.341 39.1341C121.063 39.4512 120.924 39.8412 120.924 40.3037C120.924 40.7266 121.07 41.1164 121.36 41.4732C121.664 41.83 122.074 42.2529 122.589 42.7419ZM122.669 49.4024C123.435 49.4024 124.089 49.2901 124.631 49.0655C125.186 48.8275 125.655 48.4774 126.039 48.0149L122.411 44.3079C121.552 44.7044 120.911 45.1338 120.488 45.5964C120.079 46.0457 119.874 46.6206 119.874 47.3211C119.874 48.0082 120.138 48.5303 120.667 48.8871C121.195 49.2306 121.863 49.4024 122.669 49.4024Z" fill="#FB8351"/>
<path d="M78.4695 28.341V10.6649H83.6296V24.3885H91.5893V28.341H78.4695Z" fill="#FB8351"/>
<path d="M99.8905 28.6157C97.2922 28.6157 95.3708 28.0392 94.1266 26.8864C92.9007 25.7336 92.2877 24.0502 92.2877 21.8361C92.2877 19.6404 92.9098 17.9661 94.1541 16.8133C95.3984 15.6422 97.3105 15.0566 99.8905 15.0566C102.489 15.0566 104.41 15.6422 105.654 16.8133C106.917 17.9661 107.548 19.6404 107.548 21.8361C107.548 24.0502 106.926 25.7336 105.682 26.8864C104.438 28.0392 102.507 28.6157 99.8905 28.6157ZM99.8905 24.8553C100.732 24.8553 101.336 24.6175 101.702 24.1417C102.086 23.666 102.278 22.8974 102.278 21.8361C102.278 20.7932 102.086 20.0337 101.702 19.558C101.336 19.0639 100.732 18.8169 99.8905 18.8169C99.0671 18.8169 98.4724 19.0639 98.1064 19.558C97.7405 20.0337 97.5575 20.7932 97.5575 21.8361C97.5575 22.8974 97.7405 23.666 98.1064 24.1417C98.4724 24.6175 99.0671 24.8553 99.8905 24.8553Z" fill="#FB8351"/>
<path d="M115.191 33.1719C114.55 33.1719 113.855 33.1445 113.105 33.0895C112.354 33.053 111.641 32.9798 110.964 32.87C110.305 32.7603 109.756 32.6321 109.317 32.4857V29.192C109.811 29.3567 110.378 29.494 111.019 29.6037C111.677 29.7135 112.345 29.7959 113.022 29.8508C113.699 29.9056 114.321 29.9332 114.889 29.9332C115.859 29.9332 116.618 29.8782 117.167 29.7685C117.734 29.677 118.018 29.5031 118.018 29.2469C118.018 29.0274 117.926 28.881 117.743 28.8078C117.56 28.7528 117.213 28.7254 116.7 28.7254H113.269C111.934 28.7254 110.9 28.515 110.168 28.0941C109.454 27.655 109.097 27.0054 109.097 26.1454C109.097 24.9376 109.765 24.096 111.101 23.6203C110.351 23.2359 109.802 22.7511 109.454 22.1655C109.106 21.58 108.933 20.8389 108.933 19.9423C108.933 18.2588 109.5 17.0237 110.634 16.2368C111.787 15.4501 113.443 15.0566 115.602 15.0566C116.06 15.0566 116.572 15.0932 117.139 15.1664C117.707 15.2213 118.118 15.2763 118.374 15.3311H123.48L123.37 18.4601H121.641C121.97 18.881 122.135 19.3933 122.135 19.9972C122.135 21.333 121.741 22.3943 120.955 23.1811C120.186 23.9496 118.969 24.3339 117.304 24.3339C117.066 24.3339 116.81 24.3248 116.535 24.3064C116.261 24.2698 116.005 24.2424 115.767 24.224C115.364 24.2607 115.017 24.3339 114.724 24.4437C114.431 24.5534 114.285 24.7364 114.285 24.9926C114.285 25.1756 114.367 25.3037 114.532 25.3768C114.697 25.4318 114.925 25.4592 115.218 25.4592H118.21C119.546 25.4592 120.598 25.7703 121.366 26.3924C122.135 27.0146 122.519 27.9294 122.519 29.1372C122.519 30.418 121.924 31.4061 120.735 32.1014C119.546 32.8151 117.698 33.1719 115.191 33.1719ZM115.63 21.5068C116.435 21.5068 116.993 21.3695 117.304 21.0951C117.615 20.8206 117.771 20.3632 117.771 19.7227C117.771 19.0822 117.615 18.6156 117.304 18.3229C116.993 18.0302 116.435 17.8837 115.63 17.8837C114.88 17.8837 114.331 18.0302 113.983 18.3229C113.654 18.5974 113.489 19.0639 113.489 19.7227C113.489 20.3449 113.644 20.8023 113.955 21.0951C114.285 21.3695 114.843 21.5068 115.63 21.5068Z" fill="#FB8351"/>
<path d="M131.895 28.6157C129.296 28.6157 127.375 28.0392 126.13 26.8864C124.904 25.7336 124.291 24.0502 124.291 21.8361C124.291 19.6404 124.914 17.9661 126.158 16.8133C127.402 15.6422 129.315 15.0566 131.895 15.0566C134.493 15.0566 136.414 15.6422 137.658 16.8133C138.922 17.9661 139.552 19.6404 139.552 21.8361C139.552 24.0502 138.93 25.7336 137.686 26.8864C136.441 28.0392 134.511 28.6157 131.895 28.6157ZM131.895 24.8553C132.736 24.8553 133.34 24.6175 133.706 24.1417C134.09 23.666 134.283 22.8974 134.283 21.8361C134.283 20.7932 134.09 20.0337 133.706 19.558C133.34 19.0639 132.736 18.8169 131.895 18.8169C131.072 18.8169 130.476 19.0639 130.11 19.558C129.744 20.0337 129.562 20.7932 129.562 21.8361C129.562 22.8974 129.744 23.666 130.11 24.1417C130.476 24.6175 131.072 24.8553 131.895 24.8553Z" fill="#FB8351"/>
<path d="M141.82 13.6014V9.86853H147.392V13.6014H141.82ZM142.231 28.3406V19.0909H140.339L140.777 15.3306H147.392V28.3406H142.231Z" fill="white"/>
<path d="M149.867 34.2697V15.3311H154.342L154.588 16.374C155.118 15.9532 155.695 15.633 156.317 15.4135C156.958 15.1755 157.698 15.0566 158.541 15.0566C160.48 15.0566 161.972 15.5506 163.015 16.5387C164.075 17.5085 164.606 19.1646 164.606 21.5067C164.606 23.8307 164.048 25.5963 162.932 26.8041C161.816 28.0118 160.279 28.6155 158.321 28.6155C157.022 28.6155 155.924 28.3686 155.027 27.8745V34.2697H149.867ZM157.003 24.8553C157.754 24.8553 158.331 24.59 158.733 24.0593C159.136 23.5287 159.337 22.7053 159.337 21.589C159.337 20.5095 159.144 19.7776 158.76 19.3933C158.394 19.009 157.827 18.8169 157.058 18.8169C156.29 18.8169 155.613 19.0731 155.027 19.5854V24.1966C155.321 24.4161 155.613 24.5808 155.906 24.6906C156.198 24.8003 156.564 24.8553 157.003 24.8553Z" fill="white"/>
<path d="M171.483 28.6155C170.367 28.6155 169.315 28.5333 168.327 28.3686C167.357 28.2222 166.589 28.0301 166.021 27.7921V24.0867C166.661 24.3796 167.421 24.6082 168.299 24.7729C169.196 24.9376 169.956 25.02 170.576 25.02C171.236 25.02 171.73 25.0017 172.059 24.965C172.408 24.9285 172.58 24.7729 172.58 24.4985C172.58 24.1875 172.279 23.9496 171.675 23.7848C171.072 23.6201 170.312 23.3822 169.398 23.0712C168.207 22.6503 167.319 22.1564 166.734 21.589C166.149 21.0218 165.857 20.1985 165.857 19.1187C165.857 17.8197 166.369 16.8224 167.394 16.1271C168.418 15.4135 170.028 15.0566 172.223 15.0566C173.066 15.0566 173.935 15.1206 174.831 15.2487C175.727 15.3768 176.432 15.5232 176.945 15.6879V19.311C176.395 19.0731 175.792 18.8992 175.134 18.7895C174.493 18.6796 173.908 18.6248 173.377 18.6248C172.792 18.6248 172.269 18.6522 171.812 18.7071C171.354 18.7619 171.126 18.9175 171.126 19.1737C171.126 19.4664 171.383 19.6769 171.895 19.805C172.425 19.9331 173.13 20.1344 174.008 20.4088C174.997 20.7016 175.764 21.0218 176.314 21.3695C176.881 21.7172 177.275 22.1379 177.494 22.6321C177.731 23.1262 177.851 23.739 177.851 24.4711C177.851 25.7886 177.31 26.8132 176.231 27.5451C175.169 28.2587 173.586 28.6155 171.483 28.6155Z" fill="white"/>
<path d="M184.501 28.6151C182.982 28.6151 181.793 28.1852 180.933 27.3252C180.074 26.4651 179.644 25.2026 179.644 23.5374V15.3307H184.803V23.1258C184.803 24.2601 185.38 24.8275 186.532 24.8275C186.953 24.8275 187.365 24.736 187.768 24.553C188.17 24.37 188.49 24.1413 188.728 23.8668V15.3307H193.888V28.3407H189.058L188.921 27.3526C188.409 27.7185 187.776 28.0205 187.027 28.2583C186.295 28.4962 185.453 28.6151 184.501 28.6151Z" fill="white"/>
<path d="M196.346 28.3411V15.3311H201.121L201.258 16.374C201.826 15.9898 202.457 15.6788 203.152 15.4409C203.866 15.1847 204.644 15.0566 205.486 15.0566C206.326 15.0566 206.986 15.1755 207.461 15.4135C207.938 15.6512 208.322 15.9989 208.614 16.4563C209.199 16.0356 209.859 15.697 210.591 15.4409C211.34 15.1847 212.219 15.0566 213.226 15.0566C214.744 15.0566 215.86 15.4591 216.574 16.2642C217.288 17.0511 217.644 18.2588 217.644 19.8873V28.3411H212.566V20.4912C212.566 19.9056 212.448 19.494 212.21 19.256C211.973 18.9998 211.579 18.8718 211.029 18.8718C210.316 18.8718 209.73 19.128 209.274 19.6403C209.309 19.8782 209.328 20.107 209.328 20.3265C209.328 20.5277 209.328 20.7565 209.328 21.0127V28.3411H204.552V20.4088C204.552 19.8782 204.461 19.494 204.278 19.256C204.094 18.9998 203.747 18.8718 203.235 18.8718C202.887 18.8718 202.548 18.9633 202.219 19.1463C201.889 19.3293 201.596 19.5488 201.341 19.805V28.3411H196.346Z" fill="white"/>
<path d="M138.011 50.736C136.636 50.736 135.493 50.4782 134.581 49.9628C133.683 49.4342 133.01 48.7007 132.56 47.7624C132.11 46.811 131.886 45.7009 131.886 44.4322C131.886 43.0446 132.098 41.8353 132.52 40.8046C132.943 39.7738 133.603 38.9808 134.503 38.4258C135.402 37.8576 136.563 37.5734 137.991 37.5734C138.731 37.5734 139.398 37.6262 139.993 37.732C140.601 37.8378 141.169 37.983 141.699 38.1682V39.5954C141.169 39.3972 140.608 39.2452 140.013 39.1394C139.418 39.0205 138.791 38.961 138.131 38.961C136.98 38.961 136.068 39.1791 135.395 39.6152C134.721 40.0513 134.238 40.679 133.947 41.4984C133.656 42.3177 133.511 43.2957 133.511 44.4322C133.511 46.0048 133.882 47.2206 134.621 48.0797C135.375 48.9255 136.558 49.3484 138.169 49.3484C138.764 49.3484 139.365 49.302 139.973 49.2095C140.594 49.117 141.169 48.9717 141.699 48.7735V50.2206C141.182 50.3791 140.621 50.5046 140.013 50.5972C139.418 50.6897 138.751 50.736 138.011 50.736Z" fill="white"/>
<path d="M148.373 50.7354C146.734 50.7354 145.538 50.3191 144.785 49.4866C144.045 48.6408 143.676 47.4249 143.676 45.8391C143.676 44.2664 144.053 43.0572 144.805 42.2114C145.558 41.3656 146.749 40.9427 148.373 40.9427C149.999 40.9427 151.189 41.3656 151.941 42.2114C152.695 43.0572 153.071 44.2664 153.071 45.8391C153.071 47.4249 152.702 48.6408 151.961 49.4866C151.222 50.3191 150.026 50.7354 148.373 50.7354ZM148.373 49.3478C149.496 49.3478 150.29 49.0702 150.752 48.5152C151.215 47.947 151.446 47.0549 151.446 45.8391C151.446 44.6232 151.209 43.7379 150.732 43.1828C150.27 42.6145 149.483 42.3303 148.373 42.3303C147.264 42.3303 146.47 42.6145 145.995 43.1828C145.533 43.7379 145.301 44.6232 145.301 45.8391C145.301 47.0549 145.533 47.947 145.995 48.5152C146.458 49.0702 147.25 49.3478 148.373 49.3478Z" fill="white"/>
<path d="M155.058 50.5376V49.1699H156.525V50.5376H155.058Z" fill="white"/>
<path fill-rule="evenodd" clip-rule="evenodd" d="M394.236 6.43504C396.289 4.38233 399.617 4.38233 401.67 6.43504C403.722 8.48789 403.722 11.8161 401.67 13.869L389.154 26.3845C385.561 21.5687 385.951 14.7197 390.325 10.3456L394.236 6.43504Z" fill="#4F9E91"/>
<path fill-rule="evenodd" clip-rule="evenodd" d="M412.127 34.6719C414.181 36.7246 414.181 40.053 412.127 42.1057C410.076 44.1586 406.747 44.1586 404.694 42.1057L392.179 29.5904C396.994 25.9971 403.843 26.3873 408.217 30.7613L412.127 34.6719Z" fill="#EBE1C5"/>
<path fill-rule="evenodd" clip-rule="evenodd" d="M383.891 52.5645C381.838 54.6173 378.509 54.6173 376.457 52.5645C374.404 50.5116 374.404 47.1834 376.457 45.1305L388.972 32.6152C392.565 37.4309 392.175 44.28 387.801 48.6539L383.891 52.5645Z" fill="#EBCC6E"/>
<path fill-rule="evenodd" clip-rule="evenodd" d="M365.999 24.3266C363.946 22.2738 363.946 18.9455 365.999 16.8927C368.051 14.8398 371.38 14.8398 373.433 16.8927L385.948 29.4082C381.132 33.0015 374.283 32.6111 369.909 28.2372L365.999 24.3266Z" fill="#ED834E"/>
<path fill-rule="evenodd" clip-rule="evenodd" d="M391.439 51.0315C394.466 47.666 395.873 43.3595 395.659 39.1195L401.67 45.1302C401.685 45.1451 401.7 45.16 401.715 45.175V49.4662C401.715 52.3693 399.362 54.7227 396.458 54.7227C394.1 54.7227 392.105 53.1701 391.439 51.0315Z" fill="#ED834E"/>
<path fill-rule="evenodd" clip-rule="evenodd" d="M367.531 31.8751C370.897 34.9022 375.203 36.3091 379.443 36.0956L373.433 42.1063C373.418 42.1212 373.403 42.1363 373.388 42.1512H369.097C366.194 42.1514 363.84 39.7978 363.84 36.8947C363.84 34.5368 365.393 32.5414 367.531 31.8751Z" fill="#4F9E91"/>
<path fill-rule="evenodd" clip-rule="evenodd" d="M410.595 27.1248C407.23 24.0977 402.923 22.6908 398.683 22.9041L404.694 16.8936C404.709 16.8787 404.724 16.8636 404.739 16.8485H409.03C411.934 16.8485 414.287 19.2021 414.287 22.1052C414.287 24.4632 412.734 26.4585 410.595 27.1248Z" fill="#EBCC6E"/>
<path fill-rule="evenodd" clip-rule="evenodd" d="M386.688 7.96787C383.661 11.3332 382.254 15.6397 382.467 19.8798L376.457 13.8692C376.442 13.8543 376.427 13.8393 376.412 13.8244V9.53318C376.412 6.63007 378.765 4.27649 381.668 4.27649C384.026 4.27649 386.022 5.82922 386.688 7.96787Z" fill="#EBE1C5"/>
<path fill-rule="evenodd" clip-rule="evenodd" d="M381.668 0C376.403 0 372.135 4.26828 372.135 9.5334V11.3876C368.967 10.56 365.457 11.3872 362.975 13.8694C359.252 17.5925 359.252 23.6287 362.975 27.3517L364.286 28.6628C361.461 30.3174 359.563 33.3846 359.563 36.8949C359.563 42.16 363.832 46.4283 369.097 46.4283H370.951C370.123 49.5959 370.95 53.1064 373.433 55.5885C377.156 59.3115 383.192 59.3115 386.915 55.5885L390.825 51.678C394.275 48.2284 395.886 43.6363 395.659 39.1196L401.67 45.1303C405.393 48.8533 411.429 48.8533 415.152 45.1303C418.876 41.4072 418.876 35.371 415.152 31.6481L413.842 30.3372C416.666 28.6826 418.563 25.6154 418.563 22.1051C418.563 16.84 414.294 12.5717 409.03 12.5717H407.176C408.003 9.40397 407.176 5.89349 404.694 3.41122C400.971 -0.31182 394.935 -0.31182 391.212 3.41122L387.301 7.32183C383.851 10.7715 382.24 15.3634 382.468 19.8801L376.457 13.8694C376.442 13.8545 376.427 13.8395 376.412 13.8246V9.5334C376.412 6.63029 378.765 4.27686 381.668 4.27686C384.026 4.27686 386.022 5.82944 386.688 7.96809C386.885 7.74858 387.09 7.53306 387.301 7.32183L389.901 4.72225C388.246 1.89724 385.179 0 381.668 0ZM404.739 16.8486C404.724 16.8635 404.709 16.8786 404.694 16.8935L398.683 22.904C402.924 22.6907 407.23 24.0975 410.595 27.1247C412.734 26.4584 414.287 24.463 414.287 22.1051C414.287 19.202 411.934 16.8486 409.03 16.8486H404.739ZM373.388 42.1514C373.403 42.1363 373.418 42.1213 373.433 42.1063L379.443 36.0957C375.203 36.3091 370.897 34.9022 367.532 31.8753C365.393 32.5416 363.84 34.5369 363.84 36.8949C363.84 39.798 366.194 42.1514 369.097 42.1514H373.388ZM367.368 31.7259C367.204 31.5752 367.044 31.4206 366.885 31.2622V31.2623C367.044 31.4208 367.204 31.5752 367.368 31.7259ZM396.458 59C392.948 59 389.881 57.1026 388.226 54.2776L390.825 51.678C391.037 51.4668 391.241 51.2513 391.439 51.0318C392.105 53.1704 394.1 54.7231 396.458 54.7231C399.361 54.7231 401.715 52.3697 401.715 49.4666V45.1754C402.947 46.3912 404.427 47.2035 405.992 47.6123V49.4666C405.992 54.7317 401.723 59 396.458 59ZM401.67 6.43533C399.617 4.38262 396.289 4.38262 394.236 6.43533L390.325 10.3459C385.951 14.72 385.561 21.569 389.154 26.3848L401.67 13.8693C403.723 11.8164 403.723 8.48819 401.67 6.43533ZM412.127 42.1062C414.181 40.0533 414.181 36.7251 412.127 34.6722L408.217 30.7616C403.843 26.3877 396.994 25.9974 392.178 29.5907L404.694 42.1062C406.747 44.159 410.076 44.159 412.127 42.1062ZM383.891 52.5644C381.838 54.6172 378.51 54.6172 376.457 52.5644C374.404 50.5115 374.404 47.1833 376.457 45.1304L388.972 32.6149C392.566 37.4307 392.175 44.2799 387.801 48.6538L383.891 52.5644ZM365.999 16.8935C363.946 18.9464 363.946 22.2746 365.999 24.3275L369.909 28.2381C374.283 32.612 381.132 33.0023 385.948 29.409L373.433 16.8935C371.38 14.8408 368.052 14.8408 365.999 16.8935Z" fill="#3D3A2C"/>
<path d="M289 19.2781H293.675V33.8057H301.705V37.7414H289V19.2781Z" fill="white"/>
<path d="M310.194 38.1376C308.626 38.1376 307.253 37.8558 306.073 37.2923C304.893 36.7112 303.978 35.9187 303.326 34.9151C302.692 33.8937 302.375 32.7228 302.375 31.402C302.375 30.0813 302.692 28.9191 303.326 27.9155C303.978 26.8941 304.893 26.1016 306.073 25.5382C307.253 24.957 308.626 24.6665 310.194 24.6665C311.761 24.6665 313.134 24.957 314.314 25.5382C315.494 26.1016 316.401 26.8941 317.035 27.9155C317.686 28.9191 318.012 30.0813 318.012 31.402C318.012 32.7228 317.686 33.8937 317.035 34.9151C316.401 35.9187 315.494 36.7112 314.314 37.2923C313.134 37.8558 311.761 38.1376 310.194 38.1376ZM310.194 34.5188C311.127 34.5188 311.867 34.2459 312.412 33.7001C312.976 33.1365 313.258 32.3706 313.258 31.402C313.258 30.4335 312.976 29.6763 312.412 29.1305C311.867 28.5669 311.127 28.2853 310.194 28.2853C309.26 28.2853 308.512 28.5669 307.949 29.1305C307.403 29.6763 307.13 30.4335 307.13 31.402C307.13 32.3706 307.403 33.1365 307.949 33.7001C308.512 34.2459 309.26 34.5188 310.194 34.5188Z" fill="white"/>
<path d="M326.744 43.8166C325.899 43.8166 325.045 43.7373 324.182 43.5789C323.337 43.4203 322.606 43.2091 321.99 42.9449V39.7224C323.381 40.321 324.966 40.6204 326.744 40.6204C328.03 40.6204 328.954 40.3562 329.518 39.828C330.099 39.2998 330.389 38.525 330.389 37.5036V36.7376C329.879 37.1779 329.245 37.5212 328.488 37.7678C327.748 38.0144 326.955 38.1376 326.11 38.1376C324.772 38.1376 323.592 37.8558 322.571 37.2923C321.55 36.7288 320.748 35.9363 320.167 34.9151C319.604 33.8937 319.322 32.7228 319.322 31.402C319.322 30.0637 319.604 28.8839 320.167 27.8626C320.731 26.8412 321.523 26.0576 322.544 25.5117C323.566 24.9483 324.737 24.6665 326.057 24.6665C327.871 24.6665 329.368 25.2212 330.548 26.3306V25.0626H335.038V36.8697C335.038 39.0708 334.36 40.779 333.004 41.994C331.666 43.2091 329.579 43.8166 326.744 43.8166ZM327.272 34.5453C327.994 34.5453 328.637 34.3604 329.201 33.9906C329.764 33.6208 330.16 33.1278 330.389 32.5114V30.2927C330.143 29.6763 329.738 29.192 329.174 28.8398C328.611 28.4702 327.977 28.2853 327.272 28.2853C326.322 28.2853 325.556 28.5669 324.975 29.1305C324.393 29.6763 324.103 30.4246 324.103 31.3756C324.103 32.3441 324.393 33.1189 324.975 33.7001C325.556 34.2635 326.322 34.5453 327.272 34.5453Z" fill="white"/>
<path d="M344.036 38.1376C342.469 38.1376 341.095 37.8558 339.916 37.2923C338.736 36.7112 337.82 35.9187 337.169 34.9151C336.535 33.8937 336.218 32.7228 336.218 31.402C336.218 30.0813 336.535 28.9191 337.169 27.9155C337.82 26.8941 338.736 26.1016 339.916 25.5382C341.095 24.957 342.469 24.6665 344.036 24.6665C345.603 24.6665 346.977 24.957 348.157 25.5382C349.336 26.1016 350.243 26.8941 350.877 27.9155C351.529 28.9191 351.855 30.0813 351.855 31.402C351.855 32.7228 351.529 33.8937 350.877 34.9151C350.243 35.9187 349.336 36.7112 348.157 37.2923C346.977 37.8558 345.603 38.1376 344.036 38.1376ZM344.036 34.5188C344.969 34.5188 345.709 34.2459 346.255 33.7001C346.818 33.1365 347.1 32.3706 347.1 31.402C347.1 30.4335 346.818 29.6763 346.255 29.1305C345.709 28.5669 344.969 28.2853 344.036 28.2853C343.103 28.2853 342.354 28.5669 341.791 29.1305C341.245 29.6763 340.972 30.4335 340.972 31.402C340.972 32.3706 341.245 33.1365 341.791 33.7001C342.354 34.2459 343.103 34.5188 344.036 34.5188Z" fill="white"/>
<path d="M426.418 19.2781H431.094V37.7414H426.418V19.2781Z" fill="white"/>
<path d="M433.461 25.0626H437.952V26.3306C439.131 25.2212 440.627 24.6665 442.441 24.6665C443.762 24.6665 444.933 24.9483 445.954 25.5117C446.976 26.0576 447.768 26.8412 448.331 27.8626C448.895 28.8663 449.177 30.0374 449.177 31.3756C449.177 32.6963 448.895 33.8761 448.331 34.9151C447.768 35.9363 446.976 36.7288 445.954 37.2923C444.951 37.8558 443.78 38.1376 442.441 38.1376C441.596 38.1376 440.786 38.0055 440.012 37.7413C439.255 37.4949 438.62 37.1514 438.11 36.7112V43.5259H433.461V25.0626ZM441.227 34.5188C442.178 34.5188 442.944 34.2372 443.524 33.6736C444.105 33.1102 444.397 32.3441 444.397 31.3756C444.397 30.407 444.105 29.65 443.524 29.104C442.944 28.5406 442.178 28.2588 441.227 28.2588C440.522 28.2588 439.888 28.4437 439.324 28.8135C438.761 29.1657 438.357 29.65 438.11 30.2662V32.5114C438.357 33.1278 438.761 33.6208 439.324 33.9906C439.888 34.3428 440.522 34.5188 441.227 34.5188Z" fill="white"/>
<path d="M456.107 38.1376C455.087 38.1376 454.022 38.032 452.912 37.8206C451.803 37.6269 450.921 37.3452 450.27 36.9754V33.568C450.992 33.9906 451.855 34.3428 452.859 34.6246C453.88 34.8886 454.813 35.0207 455.659 35.0207C456.274 35.0207 456.724 34.9766 457.005 34.8886C457.288 34.8006 457.428 34.6246 457.428 34.3604C457.428 34.149 457.332 33.9817 457.138 33.8585C456.962 33.7177 456.627 33.5767 456.134 33.4359C455.659 33.2775 455.104 33.1102 454.47 32.934C453.396 32.617 452.551 32.2913 451.934 31.9567C451.318 31.6221 450.861 31.1995 450.56 30.6888C450.261 30.1782 450.112 29.5355 450.112 28.7607C450.112 27.3871 450.649 26.3658 451.723 25.6966C452.815 25.0098 454.303 24.6665 456.187 24.6665C457.103 24.6665 458.063 24.7634 459.066 24.957C460.088 25.1508 460.853 25.4061 461.364 25.7231V29.0777C460.836 28.7255 460.131 28.4348 459.251 28.206C458.388 27.977 457.578 27.8626 456.82 27.8626C456.223 27.8626 455.755 27.9242 455.421 28.0474C455.087 28.1532 454.92 28.3468 454.92 28.6286C454.92 28.8928 455.087 29.0953 455.421 29.2361C455.755 29.3769 456.354 29.5531 457.217 29.7643C457.78 29.9053 458.018 29.9668 457.93 29.9492C459.057 30.2486 459.928 30.5832 460.545 30.953C461.162 31.3228 461.592 31.763 461.839 32.2737C462.104 32.7667 462.236 33.4007 462.236 34.1755C462.236 35.3905 461.708 36.359 460.651 37.081C459.612 37.7854 458.097 38.1376 456.107 38.1376Z" fill="white"/>
<path d="M469.176 38.1378C467.434 38.1378 466.122 37.6535 465.242 36.6851C464.379 35.7165 463.947 34.4399 463.947 32.8551V25.0629H468.596V32.3267C468.596 33.7883 469.256 34.519 470.577 34.519C471.176 34.519 471.722 34.3782 472.215 34.0964C472.707 33.8146 473.112 33.4009 473.429 32.8551V25.0629H478.078V37.7415H473.589V36.3681C473.043 36.9491 472.382 37.3893 471.607 37.6887C470.833 37.9881 470.022 38.1378 469.176 38.1378Z" fill="white"/>
<path d="M480.458 25.0626H484.764V26.4362C485.292 25.8728 485.9 25.4413 486.587 25.1419C487.273 24.8249 488.004 24.6665 488.779 24.6665C489.73 24.6665 490.487 24.8073 491.051 25.0891C491.632 25.3709 492.098 25.7935 492.45 26.357C492.978 25.8287 493.622 25.4148 494.379 25.1156C495.137 24.8162 495.903 24.6665 496.677 24.6665C498.35 24.6665 499.539 25.098 500.243 25.9608C500.947 26.806 501.299 28.0298 501.299 29.6322V37.7413H496.861V30.2927C496.861 29.5883 496.73 29.0777 496.465 28.7607C496.202 28.4437 495.761 28.2853 495.146 28.2853C494.353 28.2853 493.709 28.5669 493.217 29.1305C493.234 29.4297 493.243 29.8877 493.243 30.5039V37.7413H488.806V30.1078C488.806 29.4562 488.692 28.9895 488.462 28.7079C488.233 28.4261 487.828 28.2853 487.248 28.2853C486.349 28.2853 485.575 28.787 484.923 29.7908V37.7413H480.458V25.0626Z" fill="white"/>
<path d="M602.5 0C598.626 0 594.79 0.763123 591.211 2.24554C587.632 3.72813 584.38 5.90101 581.64 8.6403C578.901 11.3797 576.728 14.6317 575.246 18.2108C573.763 21.7899 573 25.6261 573 29.5C573 33.3739 573.763 37.2101 575.246 40.7892C576.728 44.3683 578.901 47.6203 581.64 50.3597C584.38 53.099 587.632 55.2719 591.211 56.7545C594.79 58.2369 598.626 59 602.5 59V44.25C600.563 44.25 598.645 43.8685 596.855 43.1271C595.066 42.3859 593.44 41.2995 592.07 39.9298C590.701 38.5602 589.614 36.9342 588.873 35.1446C588.131 33.3551 587.75 31.4371 587.75 29.5C587.75 27.5629 588.131 25.6449 588.873 23.8554C589.614 22.0658 590.701 20.4398 592.07 19.0702C593.44 17.7005 595.066 16.6141 596.855 15.8729C598.645 15.1315 600.563 14.75 602.5 14.75V0Z" fill="#0F52FF"/>
<path d="M602.5 39.3333C607.931 39.3333 612.333 34.9307 612.333 29.5C612.333 24.0692 607.931 19.6666 602.5 19.6666C597.069 19.6666 592.667 24.0692 592.667 29.5C592.667 34.9307 597.069 39.3333 602.5 39.3333Z" fill="#0F52FF"/>
<path d="M573 29.5C573 33.3739 573.763 37.2101 575.246 40.7892C576.728 44.3683 578.901 47.6203 581.64 50.3597C584.38 53.099 587.632 55.2719 591.211 56.7545C594.79 58.2369 598.626 59 602.5 59C606.374 59 610.21 58.2369 613.789 56.7545C617.368 55.2719 620.62 53.099 623.36 50.3597C626.099 47.6203 628.272 44.3683 629.754 40.7892C631.237 37.2101 632 33.3739 632 29.5H617.25C617.25 31.4371 616.869 33.3551 616.127 35.1446C615.386 36.9342 614.299 38.5602 612.93 39.9298C611.56 41.2995 609.934 42.3859 608.145 43.1271C606.355 43.8685 604.437 44.25 602.5 44.25C600.563 44.25 598.645 43.8685 596.855 43.1271C595.066 42.3859 593.44 41.2995 592.07 39.9298C590.701 38.5602 589.614 36.9342 588.873 35.1446C588.131 33.3551 587.75 31.4371 587.75 29.5H573Z" fill="#5BD0F4"/>
<path d="M612.333 29.5001C612.333 26.8921 611.297 24.391 609.453 22.5468C607.609 20.7027 605.108 19.6666 602.5 19.6666C599.892 19.6666 597.391 20.7027 595.547 22.5468C593.703 24.391 592.667 26.8921 592.667 29.5001H602.5H612.333Z" fill="#5BD0F4"/>
<path d="M647.407 18.4164H643.743V38.7714H647.407V18.4164Z" fill="#0F52FF"/>
<path d="M649.799 31.5605C649.799 36.2712 653.056 39.1791 657.36 39.1791C661.663 39.1791 664.92 36.2712 664.92 31.5605C664.92 26.8498 661.663 23.9419 657.36 23.9419C653.056 23.9419 649.799 26.8498 649.799 31.5605ZM653.463 31.5605C653.463 28.7689 655.092 27.1405 657.36 27.1405C659.628 27.1405 661.256 28.7689 661.256 31.5605C661.256 34.352 659.628 35.9804 657.36 35.9804C655.092 35.9804 653.463 34.352 653.463 31.5605Z" fill="#0F52FF"/>
<path d="M678.013 24.349V26.2972H677.722C676.85 25.0469 675.454 23.9419 672.953 23.9419C669.522 23.9419 666.44 26.8498 666.44 31.3279C666.44 35.806 669.522 38.7138 672.953 38.7138C675.454 38.7138 676.85 37.5797 677.664 36.4457H677.955V37.8415C677.955 40.633 676.326 41.9125 673.942 41.9125C671.558 41.9125 670.336 40.633 669.842 38.9754L666.556 40.4004C667.312 42.5812 669.522 44.9948 674 44.9948C678.595 44.9948 681.619 42.5812 681.619 37.9286V24.349H678.013ZM674.058 35.5733C671.79 35.5733 670.104 33.9449 670.104 31.3279C670.104 28.7108 671.79 27.0824 674.058 27.0824C676.326 27.0824 678.013 28.7108 678.013 31.3279C678.013 33.9449 676.326 35.5733 674.058 35.5733Z" fill="#0F52FF"/>
<path d="M683.989 31.5605C683.989 36.2712 687.246 39.1791 691.55 39.1791C695.853 39.1791 699.11 36.2712 699.11 31.5605C699.11 26.8498 695.853 23.9419 691.55 23.9419C687.246 23.9419 683.989 26.8498 683.989 31.5605ZM687.653 31.5605C687.653 28.7689 689.282 27.1405 691.55 27.1405C693.818 27.1405 695.446 28.7689 695.446 31.5605C695.446 34.352 693.818 35.9804 691.55 35.9804C689.282 35.9804 687.653 34.352 687.653 31.5605Z" fill="#0F52FF"/>
<path d="M701.986 20.161C701.986 21.6441 703.12 22.6618 704.575 22.6618C706.028 22.6618 707.163 21.6441 707.163 20.161C707.163 18.6781 706.028 17.6603 704.575 17.6603C703.12 17.6603 701.986 18.6781 701.986 20.161ZM706.406 24.3483H702.743V38.7713H706.406V24.3483Z" fill="#5BD0F4"/>
<path d="M709.671 44.5877H713.336V36.9109H713.626C714.44 38.0741 715.836 39.1791 718.337 39.1791C721.768 39.1791 724.851 36.2712 724.851 31.5605C724.851 26.8498 721.768 23.9419 718.337 23.9419C715.836 23.9419 714.44 25.0469 713.568 26.2973H713.277V24.349H709.671V44.5877ZM717.231 36.0386C714.964 36.0386 713.277 34.4102 713.277 31.5605C713.277 28.7108 714.964 27.0824 717.231 27.0824C719.5 27.0824 721.186 28.7108 721.186 31.5605C721.186 34.4102 719.5 36.0386 717.231 36.0386Z" fill="#5BD0F4"/>
<path d="M726.989 28.391C726.989 31.2407 729.372 32.2875 732.396 32.8691L733.153 33.0144C734.955 33.3634 735.769 33.7996 735.769 34.7301C735.769 35.6606 734.955 36.3875 733.27 36.3875C731.582 36.3875 730.217 35.6896 729.837 33.596L726.464 34.4683C726.96 37.4925 729.489 39.1791 733.27 39.1791C736.933 39.1791 739.318 37.4635 739.318 34.4393C739.318 31.415 736.875 30.601 733.619 29.9612L732.862 29.8158C731.35 29.525 730.535 29.1179 730.535 28.1584C730.535 27.286 731.292 26.7334 732.688 26.7334C734.084 26.7334 735.072 27.315 735.421 28.8852L738.736 27.8676C738.038 25.5413 735.916 23.9419 732.688 23.9419C729.256 23.9419 726.989 25.5413 726.989 28.391Z" fill="#5BD0F4"/>
<path d="M755.775 38.7714V24.3484H752.112V31.7925C752.112 34.4677 750.804 36.038 748.564 36.038C746.586 36.038 745.482 34.9621 745.482 32.7812V24.3484H741.817V32.9556C741.817 36.5324 744.058 39.004 747.431 39.004C750.076 39.004 751.298 37.8408 751.879 36.6195H752.169V38.7714H755.775Z" fill="#5BD0F4"/>
<path d="M759.025 24.3486V38.7716H762.69V30.1643C762.69 28.187 763.621 27.082 765.306 27.082C766.761 27.082 767.633 27.8962 767.633 29.4664V38.7716H771.297V30.1643C771.297 28.187 772.228 27.082 773.914 27.082C775.368 27.082 776.24 27.8962 776.24 29.4664V38.7716H779.905V29.292C779.905 25.8025 777.752 24.116 775.077 24.116C772.722 24.116 771.646 25.1628 770.948 26.3841H770.657C769.988 25.0175 768.796 24.116 766.702 24.116C764.609 24.116 763.474 25.0465 762.923 26.1515H762.631V24.3486H759.025Z" fill="#5BD0F4"/>
<path d="M893.818 48.8306L854.339 21.5977C850.338 18.8381 851.698 13.0922 856.687 11.741L898.646 0.352723C899.535 0.0320001 900.488 -0.0721106 901.425 0.0490339C902.362 0.170178 903.257 0.513083 904.035 1.04929C904.813 1.58549 905.452 2.29953 905.898 3.13215C906.345 3.96476 906.587 4.89194 906.604 5.83672L904.117 44.4557C903.822 49.0397 897.819 51.5902 893.818 48.8306Z" fill="#E9327C"/>
<path d="M881.296 55.5531L858.038 10.0681C857.506 9.02755 857.272 7.86037 857.362 6.69528C857.451 5.5302 857.861 4.41247 858.545 3.46538C859.23 2.51828 860.162 1.7786 861.241 1.32792C862.319 0.87723 863.5 0.733045 864.655 0.911259L907.759 7.56379C908.751 7.71697 909.693 8.10351 910.507 8.69164C911.321 9.27976 911.984 10.0527 912.441 10.9468C912.898 11.841 913.136 12.8308 913.136 13.8349C913.136 14.8391 912.897 15.8288 912.44 16.7228L892.583 55.5553C892.05 56.5929 891.241 57.4634 890.246 58.0711C889.25 58.6788 888.106 59.0002 886.939 59C885.773 58.9998 884.629 58.6779 883.633 58.0698C882.638 57.4617 881.829 56.5909 881.296 55.5531Z" fill="#1DACE3"/>
<path d="M906.498 7.36837L885.011 4.052L858.63 11.2151L869.16 31.8153L893.818 48.8306C894.362 49.2018 894.96 49.4861 895.592 49.6735L904.958 31.3575L906.498 7.36837Z" fill="#3A68B8"/>
<path d="M1015.34 12.6849C1015.34 11.8862 1015.57 11.1055 1016.02 10.4414C1016.46 9.77734 1017.09 9.25975 1017.83 8.95411C1018.57 8.64847 1019.38 8.56851 1020.16 8.72432C1020.94 8.88014 1021.66 9.26474 1022.23 9.82949C1022.79 10.3942 1023.18 11.1138 1023.33 11.8971C1023.49 12.6804 1023.41 13.4924 1023.1 14.2302C1022.8 14.9681 1022.28 15.5988 1021.62 16.0425C1020.95 16.4862 1020.17 16.7231 1019.37 16.7231C1018.31 16.7122 1017.28 16.2832 1016.53 15.5283C1015.77 14.7733 1015.35 13.7525 1015.34 12.6849ZM1016.01 18.6971H1022.74V41.1304H1016.01V18.6971Z" fill="white"/>
<path d="M1051.81 29.9139C1051.89 31.3967 1051.67 32.8803 1051.18 34.2795C1050.68 35.6786 1049.91 36.9656 1048.91 38.0666C1047.92 39.1675 1046.71 40.0605 1045.37 40.6944C1044.03 41.3282 1042.57 41.6904 1041.09 41.7599C1039.84 41.8279 1038.59 41.6174 1037.44 41.144C1036.28 40.6705 1035.25 39.9458 1034.4 39.0223V50.1048H1027.67V18.6972H1034.4V20.8055C1035.25 19.8824 1036.28 19.1581 1037.44 18.685C1038.59 18.2119 1039.84 18.0019 1041.09 18.0701C1042.57 18.1394 1044.03 18.5012 1045.37 19.1348C1046.71 19.7685 1047.92 20.6613 1048.91 21.7621C1049.91 22.8628 1050.68 24.1497 1051.18 25.5487C1051.67 26.9477 1051.89 28.4312 1051.81 29.9139ZM1045.08 29.9139C1045.05 28.8636 1044.72 27.8444 1044.12 26.9839C1043.51 26.1233 1042.67 25.4597 1041.69 25.076C1040.71 24.6924 1039.64 24.6057 1038.62 24.8269C1037.59 25.048 1036.65 25.5672 1035.92 26.3195C1035.18 27.0717 1034.69 28.0236 1034.49 29.0559C1034.3 30.0883 1034.41 31.1553 1034.82 32.1234C1035.23 33.0915 1035.91 33.9176 1036.79 34.4985C1037.66 35.0794 1038.69 35.3892 1039.74 35.3891C1040.46 35.4216 1041.18 35.3011 1041.86 35.0356C1042.53 34.7701 1043.14 34.3655 1043.64 33.8484C1044.14 33.3314 1044.53 32.7135 1044.78 32.0354C1045.03 31.3573 1045.13 30.6343 1045.08 29.9139Z" fill="white"/>
<path d="M1072.58 34.3967C1072.58 39.5572 1068.1 41.7556 1063.25 41.7556C1061.29 41.9328 1059.33 41.5185 1057.61 40.5663C1055.89 39.6141 1054.49 38.1679 1053.6 36.4147L1059.44 33.0961C1059.67 33.9065 1060.18 34.6109 1060.88 35.0916C1061.57 35.5723 1062.41 35.8001 1063.25 35.7369C1064.87 35.7369 1065.67 35.2417 1065.67 34.3461C1065.67 31.877 1054.63 33.1797 1054.63 25.4159C1054.63 20.5261 1058.76 18.0592 1063.44 18.0592C1065.19 18.0041 1066.93 18.4203 1068.47 19.2645C1070 20.1086 1071.29 21.3498 1072.18 22.8587L1066.44 25.955C1066.19 25.3662 1065.77 24.8643 1065.24 24.5121C1064.7 24.1598 1064.08 23.9729 1063.44 23.9745C1062.27 23.9745 1061.55 24.4146 1061.55 25.231C1061.55 27.8058 1072.58 26.1003 1072.58 34.3967Z" fill="white"/>
<path d="M1097.18 18.6968V41.1301H1090.45V39.0175C1089.67 39.9481 1088.69 40.6814 1087.57 41.1572C1086.45 41.633 1085.24 41.8379 1084.03 41.7551C1079.5 41.7551 1075.64 38.5245 1075.64 32.4662V18.6968H1082.37V31.4847C1082.32 32.0194 1082.38 32.56 1082.55 33.0688C1082.72 33.5777 1083.01 34.0426 1083.38 34.4312C1083.75 34.8198 1084.2 35.1227 1084.7 35.3188C1085.2 35.515 1085.74 35.5996 1086.28 35.5669C1088.74 35.5669 1090.46 34.1321 1090.46 30.9455V18.6968H1097.18Z" fill="white"/>
<path d="M1135.75 27.3539V41.1299H1129.02V27.9393C1129.02 25.6968 1127.94 24.2598 1125.79 24.2598C1123.55 24.2598 1122.29 25.831 1122.29 28.4784V41.1299H1115.56V27.9393C1115.56 25.6968 1114.48 24.2598 1112.33 24.2598C1110.09 24.2598 1108.83 25.831 1108.83 28.4784V41.1299H1102.1V18.6966H1108.84V20.752C1109.54 19.8367 1110.46 19.1109 1111.51 18.6407C1112.56 18.1706 1113.71 17.9711 1114.85 18.0606C1116.01 18.0043 1117.15 18.2473 1118.18 18.766C1119.21 19.2847 1120.09 20.0614 1120.73 21.0204C1121.48 20.017 1122.47 19.2192 1123.6 18.7016C1124.74 18.1839 1125.99 17.9634 1127.24 18.0606C1132.39 18.0694 1135.75 21.7467 1135.75 27.3539Z" fill="white"/>
<path d="M1141.45 18.5582C1144.21 18.5582 1146.45 16.3216 1146.45 13.5627C1146.45 10.8038 1144.21 8.56726 1141.45 8.56726C1138.69 8.56726 1136.46 10.8038 1136.46 13.5627C1136.46 16.3216 1138.69 18.5582 1141.45 18.5582Z" fill="white"/>
<path d="M923.454 8.37817H930.186V41.1303H923.454V8.37817ZM933.997 29.9136C933.99 27.5617 934.681 25.2605 935.982 23.3014C937.283 21.3422 939.137 19.8133 941.307 18.9081C943.478 18.0029 945.869 17.7623 948.176 18.2166C950.484 18.6709 952.605 19.7997 954.27 21.4601C955.936 23.1205 957.072 25.2379 957.533 27.5441C957.995 29.8503 957.762 32.2415 956.863 34.4151C955.965 36.5887 954.442 38.4469 952.487 39.7543C950.532 41.0618 948.233 41.7597 945.881 41.7597C944.319 41.7764 942.769 41.4817 941.322 40.8927C939.875 40.3038 938.56 39.4324 937.454 38.3296C936.348 37.2267 935.472 35.9145 934.879 34.4695C934.285 33.0245 933.986 31.4757 933.997 29.9136ZM951.048 29.9136C951.022 28.8991 950.697 27.9149 950.114 27.0841C949.531 26.2533 948.716 25.6128 947.771 25.2427C946.826 24.8726 945.793 24.7894 944.801 25.0034C943.809 25.2175 942.902 25.7192 942.194 26.446C941.485 27.1728 941.007 28.0923 940.819 29.0895C940.63 30.0867 940.74 31.1173 941.134 32.0525C941.528 32.9876 942.189 33.7858 943.035 34.3471C943.88 34.9085 944.873 35.208 945.887 35.2084C946.582 35.2282 947.274 35.1038 947.918 34.843C948.563 34.5823 949.146 34.1909 949.632 33.6934C950.118 33.196 950.495 32.6033 950.74 31.9527C950.985 31.3022 951.093 30.6079 951.057 29.9136H951.048ZM984.606 18.6904V40.0036C984.606 47.5407 978.728 50.7251 972.762 50.7251C970.662 50.8836 968.559 50.4609 966.683 49.5032C964.807 48.5456 963.231 47.09 962.128 45.2961L967.87 41.9753C968.333 42.9116 969.071 43.6841 969.986 44.1894C970.9 44.6948 971.947 44.9089 972.986 44.8032C973.649 44.8937 974.325 44.8342 974.962 44.629C975.599 44.4237 976.182 44.078 976.668 43.6174C977.154 43.1567 977.53 42.5928 977.769 41.9674C978.008 41.3419 978.103 40.6708 978.048 40.0036V37.9394C977.259 38.9034 976.256 39.6693 975.118 40.1756C973.981 40.682 972.74 40.9147 971.496 40.8552C968.535 40.7632 965.726 39.5222 963.664 37.3951C961.602 35.268 960.449 32.4217 960.449 29.4592C960.449 26.4967 961.602 23.6504 963.664 21.5233C965.726 19.3962 968.535 18.1552 971.496 18.0632C972.74 18.0037 973.981 18.2364 975.118 18.7428C976.256 19.2491 977.259 20.015 978.048 20.979V18.6904H984.606ZM978.056 29.4581C978.101 28.3746 977.82 27.3026 977.25 26.3799C976.68 25.4572 975.848 24.726 974.859 24.2804C973.87 23.8348 972.771 23.6951 971.702 23.8792C970.634 24.0633 969.645 24.5629 968.862 25.3137C968.08 26.0645 967.54 27.0322 967.311 28.0923C967.083 29.1525 967.178 30.2566 967.582 31.2628C967.986 32.2691 968.682 33.1313 969.581 33.7387C970.479 34.3461 971.539 34.6709 972.623 34.6714C973.33 34.7211 974.04 34.6223 974.706 34.3813C975.373 34.1403 975.982 33.7624 976.493 33.272C977.005 32.7816 977.409 32.1894 977.678 31.5337C977.947 30.878 978.076 30.1732 978.056 29.4647V29.4581ZM988.417 29.8982C988.41 27.5463 989.1 25.2451 990.402 23.286C991.703 21.3268 993.556 19.7979 995.727 18.8927C997.898 17.9875 1000.29 17.7469 1002.6 18.2012C1004.9 18.6554 1007.02 19.7843 1008.69 21.4447C1010.36 23.1051 1011.49 25.2225 1011.95 27.5287C1012.41 29.8349 1012.18 32.2261 1011.28 34.3997C1010.38 36.5733 1008.86 38.4315 1006.91 39.7389C1004.95 41.0463 1002.65 41.7443 1000.3 41.7443C998.74 41.7609 997.191 41.4667 995.745 40.8787C994.3 40.2908 992.985 39.4208 991.879 38.3196C990.773 37.2184 989.897 35.908 989.303 34.4648C988.708 33.0215 988.407 31.4744 988.417 29.9136V29.8982ZM1005.47 29.8982C1005.44 28.8831 1005.12 27.8981 1004.53 27.0666C1003.95 26.2351 1003.14 25.594 1002.19 25.2235C1001.24 24.853 1000.21 24.7695 999.218 24.9836C998.226 25.1976 997.318 25.6996 996.609 26.4268C995.901 27.1541 995.422 28.0742 995.234 29.072C995.045 30.0698 995.155 31.1011 995.55 32.0368C995.944 32.9724 996.606 33.7709 997.452 34.3323C998.299 34.8937 999.292 35.1931 1000.31 35.193C1001 35.2114 1001.69 35.0865 1002.33 34.8261C1002.97 34.5658 1003.56 34.1756 1004.04 33.6799C1004.52 33.1843 1004.9 32.5939 1005.15 31.9458C1005.39 31.2977 1005.5 30.6059 1005.47 29.9136V29.8982Z" fill="white"/>
</svg>
